<?xml version="1.0" encoding="UTF-8"?>
<svg version="1.1" xmlns="http://www.w3.org/2000/svg" width="500" height="500">
<path d="M0 0 C4.30387268 0.53119326 7.6430192 1.452691 11.25 3.9375 C11.87390625 4.35515625 12.4978125 4.7728125 13.140625 5.203125 C22.01566227 11.91021424 26.68660281 23.13166648 28.25 33.9375 C28.48336333 37.44402012 28.48607583 40.92470065 28.4375 44.4375 C28.43685547 45.32308594 28.43621094 46.20867188 28.43554688 47.12109375 C28.39805239 52.79525917 27.96502246 58.30884323 27.25 63.9375 C27.930625 63.421875 28.61125 62.90625 29.3125 62.375 C33.15525323 60.49450374 35.16132242 60.82240612 39.25 61.9375 C44.68111816 66.38114213 45.51231143 72.23460685 46.25 78.9375 C46.4983703 82.66796578 46.59103392 86.3868441 46.625 90.125 C46.63885742 91.03878418 46.65271484 91.95256836 46.66699219 92.89404297 C46.61013074 101.20329673 45.01182551 108.91960192 40.375 115.9375 C34.41261807 125.06027016 30.69732435 134.74428789 27.3125 145.0625 C27.09656189 145.7181192 26.88062378 146.3737384 26.65814209 147.04922485 C18.17075805 172.90583898 11.97811143 199.61749277 11.25 226.9375 C11.21003906 228.16339844 11.17007813 229.38929688 11.12890625 230.65234375 C10.85525776 246.7654109 12.85595269 262.57509046 15.5625 278.4375 C15.75094482 279.58186523 15.93938965 280.72623047 16.13354492 281.90527344 C18.82276616 296.91801116 24.44830684 311.14484455 35.1875 322.1875 C39.86282511 327.15004644 39.86282511 327.15004644 40.0625 331.3125 C39.25 334.9375 39.25 334.9375 37.8125 337.4375 C34.11836442 339.59992083 30.42170038 339.93635784 26.25 338.9375 C23.96875 336.90625 23.96875 336.90625 22.25 334.9375 C22.06136457 349.16600072 27.7335899 361.32209928 37.52734375 371.41015625 C39.80964243 374.7585627 39.66797709 376.96671768 39.25 380.9375 C37.08833241 384.22323474 35.61638562 384.83757665 31.8125 385.875 C27.83780403 385.94473151 26.38592696 385.26704574 23.25 382.9375 C22.59 382.6075 21.93 382.2775 21.25 381.9375 C21.19054199 382.60354248 21.13108398 383.26958496 21.06982422 383.95581055 C18.21982917 414.78876801 13.5055879 446.57727384 -1.75 473.9375 C-2.31203125 474.97390625 -2.8740625 476.0103125 -3.453125 477.078125 C-7.56368158 484.34426037 -7.56368158 484.34426037 -11.75 485.9375 C-15.51522898 486.41816753 -17.25223381 486.22509824 -20.5625 484.3125 C-23.25137293 481.39315225 -23.49572509 479.86196943 -23.75 475.9375 C-22.78125 473.21875 -22.78125 473.21875 -21.25 470.4375 C-20.41662109 468.86935547 -20.41662109 468.86935547 -19.56640625 467.26953125 C-18.96699219 466.16996094 -18.36757813 465.07039063 -17.75 463.9375 C10.47083295 410.7687097 8.9262837 339.61045956 -1.75 281.9375 C-9.41618347 239.89107043 -6.65565033 200.2119948 4.25 158.9375 C4.51683594 157.89464844 4.78367187 156.85179687 5.05859375 155.77734375 C8.04145471 144.14561322 11.42254396 132.82463966 15.9375 121.6875 C16.30593018 120.77653564 16.67436035 119.86557129 17.05395508 118.92700195 C18.97842262 114.36338862 20.93898298 110.68528948 24.25 106.9375 C27.83241887 100.56875535 27.93570181 94.14468259 28.25 86.9375 C24.56093494 88.92959513 21.28768116 90.79618748 18.1875 93.625 C14.9691901 96.15856311 13.32334851 96.9375 9.25 96.9375 C5.72093933 95.33338152 4.42227092 94.19590638 2.25 90.9375 C2.36864288 84.05621271 4.33668931 77.81820811 6.43383789 71.31787109 C9.23748784 62.39971267 9.43144784 53.60862231 9.4375 44.3125 C9.44974609 43.31476562 9.46199219 42.31703125 9.47460938 41.2890625 C9.49040857 33.32627049 9.07098034 26.94038597 3.25 20.9375 C1.17230911 20.7028353 1.17230911 20.7028353 -0.08984375 22.265625 C-0.61707031 22.89984375 -1.14429688 23.5340625 -1.6875 24.1875 C-9.0869685 32.84319297 -16.28037985 40.85370329 -25.25390625 47.91796875 C-28.07290979 50.19875878 -30.56786247 52.66401194 -33.0859375 55.265625 C-35.47486855 57.66577169 -38.0292443 59.8530797 -40.59375 62.0625 C-42.94962958 64.11109094 -45.2550746 66.20953002 -47.5625 68.3125 C-55.40373332 75.37440585 -63.5407604 82.00671322 -72.1640625 88.09375 C-73.73487906 89.21372797 -75.28057538 90.37179336 -76.7734375 91.59375 C-82.52461093 96.04920452 -88.65279291 97.36353189 -95.58764648 99.05249023 C-107.50505125 102.016362 -116.13043294 107.18254707 -124.75 115.9375 C-125.37519531 116.56398438 -126.00039063 117.19046875 -126.64453125 117.8359375 C-135.46237468 127.27083092 -140.52056388 137.9789441 -144.42578125 150.08984375 C-147.43501976 159.10753219 -147.43501976 159.10753219 -150.73046875 161.1875 C-151.45878906 161.435 -152.18710938 161.6825 -152.9375 161.9375 C-164.83852523 166.6439022 -171.92764806 176.29839541 -178.5625 186.8125 C-183.29774998 194.13034076 -188.24360499 200.09779443 -194.75 205.9375 C-195.75405553 206.93342796 -196.75479523 207.93272766 -197.75 208.9375 C-180.59418459 209.25091428 -166.40166023 208.76333011 -150.75 200.9375 C-146.7369676 200.40242901 -145.21071967 200.60698372 -141.875 203 C-139.75 205.9375 -139.75 205.9375 -139.0625 209.4375 C-139.79482045 213.16567684 -140.65518477 214.5619612 -143.73828125 216.75390625 C-161.02010186 226.92165702 -180.17795341 229.98480593 -199.75 225.9375 C-209.40615995 223.4257256 -221.72698504 220.1564709 -228.2265625 212.109375 C-229.63950543 209.28348914 -229.81604444 207.26038392 -229.1875 204.1875 C-226.63659766 200.1947833 -223.63992349 198.70593445 -219.125 197.625 C-207.25765303 194.24683191 -200.3625647 187.71563243 -194.5 177.1875 C-188.99392822 167.43563509 -180.7739213 159.22917743 -172.375 151.875 C-171.85164063 151.40964844 -171.32828125 150.94429687 -170.7890625 150.46484375 C-168.75 148.9375 -168.75 148.9375 -165.20703125 147.25 C-161.55008125 145.19914291 -160.59121669 143.13471815 -159.40869141 139.20141602 C-159.21194824 138.47494873 -159.01520508 137.74848145 -158.8125 137 C-154.9634352 124.66902958 -148.25760553 114.64885851 -139.75 104.9375 C-139.08613281 104.17824219 -138.42226563 103.41898437 -137.73828125 102.63671875 C-128.14267789 92.36711737 -115.84977058 84.91743417 -102.00390625 82.203125 C-91.71850133 80.16929493 -85.28192338 76.4409209 -77.48535156 69.48144531 C-75.72090255 67.91161195 -73.92581745 66.38581799 -72.1171875 64.8671875 C-66.84326406 60.42535466 -61.66649106 55.88632679 -56.5625 51.25 C-53.20625802 48.20136776 -49.7737141 45.29096918 -46.25 42.4375 C-34.33765191 32.7765689 -22.45761389 22.29588915 -13.4765625 9.765625 C-6.44442937 0.14885231 -6.44442937 0.14885231 0 0 Z " fill="#71a2c0" transform="translate(407.75,-0.9375)"/>
<path d="M0 0 C6.11485027 -0.09706112 11.93303301 0.22959149 18 1 C17.39175723 7.55208354 15.87248206 13.53201635 13.9375 19.8125 C13.63021973 20.81571289 13.32293945 21.81892578 13.00634766 22.85253906 C10.18822286 31.81556443 6.74371101 40.42201919 2.90039062 48.98925781 C2.06825674 50.84756981 1.25961264 52.71635253 0.453125 54.5859375 C-2.72738487 61.86369243 -2.72738487 61.86369243 -5 63 C-5.17015625 64.03253906 -5.17015625 64.03253906 -5.34375 65.0859375 C-6.25623423 69.137802 -8.27769571 72.1517734 -10.5 75.625 C-10.95358887 76.33720703 -11.40717773 77.04941406 -11.87451172 77.78320312 C-23.04646565 95.05001361 -37.77231195 109.80200277 -55 121 C-43.60925385 121.50105921 -33.33419259 121.62616401 -22.50805664 117.69067383 C-18.24502912 116.1656753 -15.37983815 115.72965733 -11 117 C-8.125 119.125 -8.125 119.125 -6 122 C-5.08823268 134.79564987 -10.59467169 146.33045032 -17 157 C3.34019787 156.61818741 24.21320929 150.71961624 42.86328125 142.78125 C46.14793493 141.58027973 48.65740549 142.19530132 52 143 C53.875 144.0625 53.875 144.0625 55 146 C57.25346149 158.87099783 53.66734924 170.96094571 47 182 C46.67 182.33 46.34 182.66 46 183 C60.011936 183.98329375 76.0401257 178.29520388 87.9375 171.125 C90.83675636 169.44173211 91.84745347 169.00287824 95.3125 168.9375 C98.52581258 170.20787939 100.03916606 171.13416578 102 174 C102.5625 177.4375 102.5625 177.4375 102 181 C91.11236541 193.55047333 71.08473219 199.89330255 55 202 C50.14209735 202.27000097 45.30179209 202.27988812 40.4375 202.25 C39.17486328 202.25773438 37.91222656 202.26546875 36.61132812 202.2734375 C20.31763508 202.23940368 20.31763508 202.23940368 14.5 198.3125 C12.42023527 195.10619605 12 192.81504769 12 189 C14.42685445 184.36691423 18.24317429 182.65842579 22.6875 180.3046875 C29.50455054 176.45858128 32.92274389 172.13923417 36 165 C35.12601562 165.31453125 34.25203125 165.6290625 33.3515625 165.953125 C26.30398554 168.40574088 19.28385486 170.55192762 12 172.1875 C11.32662598 172.34186523 10.65325195 172.49623047 9.95947266 172.65527344 C-2.15338275 175.27135512 -14.22259128 176.37349933 -26.58374023 176.37060547 C-28.72520032 176.37507875 -30.86474775 176.41187237 -33.00585938 176.44921875 C-34.3828056 176.45507202 -35.75976138 176.45905136 -37.13671875 176.4609375 C-38.97302856 176.47326416 -38.97302856 176.47326416 -40.84643555 176.48583984 C-44.58465335 175.90992799 -45.70899704 174.93985225 -48 172 C-49.42662219 169.14675563 -49.31033868 167.16545451 -49 164 C-46.95577956 160.64747848 -44.97502025 158.98350394 -41.6875 156.8125 C-35.1277737 152.3547075 -31.37399613 144.98173295 -28 138 C-28.90878906 138.15597656 -29.81757813 138.31195313 -30.75390625 138.47265625 C-49.06554868 141.30861318 -69.35979146 140.01423137 -85 129 C-86.14363112 126.71273777 -86.26501932 125.17147573 -86.375 122.625 C-86.42398438 121.85414063 -86.47296875 121.08328125 -86.5234375 120.2890625 C-85.728127 116.81106284 -83.94070414 115.9463376 -81 114 C-78.35208555 112.5225922 -75.64924016 111.16821877 -72.9375 109.8125 C-65.29922475 105.87269775 -58.64523979 101.48786857 -52 96 C-51.16339844 95.33871094 -50.32679688 94.67742187 -49.46484375 93.99609375 C-36.66600016 83.30672676 -27.90715903 68.4737169 -20 54 C-19.64454102 53.35627441 -19.28908203 52.71254883 -18.92285156 52.04931641 C-10.0235726 35.75068391 -3.94518087 18.11668583 0 0 Z " fill="#71a2c0" transform="translate(211,240)"/>
<path d="M0 0 C5.33901397 4.57629769 8.31049514 11.59509666 11 18 C11 18.99 11 19.98 11 21 C11.83402344 21.03738281 12.66804688 21.07476562 13.52734375 21.11328125 C27.23720432 21.91420094 27.23720432 21.91420094 33 25 C35.08129387 28.1219408 35.60077982 30.08269235 35.51171875 33.81640625 C34.381476 38.63935049 30.1275237 42.55204024 26.12890625 45.2734375 C24.05972021 46.77395579 23.07651842 47.65362924 22 50 C22.08319316 54.08960036 22.61673209 57.9160467 23.3515625 61.9296875 C24.29969335 67.29896547 25.13920311 72.29119533 22 77 C18.27552994 79.48298004 15.31649942 79.65776171 11 79 C8.3826355 77.93189425 6.10183398 76.49585017 3.75 74.9375 C-0.31421727 72.04968312 -0.31421727 72.04968312 -5.02734375 71.03125 C-9.00597884 72.98511436 -12.79474705 75.25797549 -16.61328125 77.50390625 C-20.41428961 79.18301375 -22.88842767 79.42296079 -27 79 C-29.9375 77.0625 -29.9375 77.0625 -32 74 C-32.50329508 69.4703443 -32.30488262 66.12551382 -31.11328125 61.7265625 C-29.35094731 55.36088304 -29.35094731 55.36088304 -31.05078125 49.24707031 C-34.27973338 45.3576507 -38.14060803 42.23876002 -42 39 C-44.4611898 35.3082153 -44.67530277 32.2855753 -44 28 C-41.59567886 24.1931582 -38.67616484 23.39874117 -34.40625 22.37109375 C-32 22 -32 22 -29.09375 22.03515625 C-25.47348973 21.92088036 -23.24451108 21.66586456 -20 20 C-17.09817274 16.05179734 -15.45667694 11.48536107 -13.71875 6.94140625 C-11.19754433 0.5908153 -6.84438182 -1.60479494 0 0 Z M-5 29 C-5.515625 29.928125 -6.03125 30.85625 -6.5625 31.8125 C-9.16574645 35.90608084 -12.47821029 36.64346309 -17 38 C-16.360625 38.78375 -15.72125 39.5675 -15.0625 40.375 C-12.21991345 44.55350178 -12.19460806 49.07641598 -12 54 C-11.42378906 53.83757812 -10.84757812 53.67515625 -10.25390625 53.5078125 C-5.8025641 52.50491046 -1.34153355 52.55282215 3 54 C3.02126953 53.02160156 3.02126953 53.02160156 3.04296875 52.0234375 C3.39300905 45.60918559 4.38280217 42.49880814 9 38 C8.09507813 37.77957031 8.09507813 37.77957031 7.171875 37.5546875 C-0.16680116 35.49512355 -0.16680116 35.49512355 -2.5 31.8125 C-2.995 30.884375 -3.49 29.95625 -4 29 C-4.33 29 -4.66 29 -5 29 Z " fill="#71a2c0" transform="translate(98,195)"/>
<path d="M0 0 C4.60579351 2.88908866 5.72097796 5.47541682 7.3125 10.5625 C8.65453025 14.1222893 8.65453025 14.1222893 11 17 C14.52927065 18.25574671 17.47374215 18.88377629 21.17504883 19.15454102 C25.03767392 19.45251627 26.86062522 19.8901616 29.94921875 22.32421875 C32.17029208 25.22219062 32.84726077 27.20465781 32.625 30.87890625 C31.16651517 35.82863913 26.82694671 39.71678743 22.703125 42.61328125 C19.5468316 47.03643553 21.60718266 52.54786119 22.4453125 57.64648438 C23.38154586 64.35449677 23.38154586 64.35449677 21.1875 68.06640625 C18.43620372 70.49835564 17.48790095 70.95305216 13.79296875 71.30859375 C9.27664626 70.94114836 7.09695016 69.49316311 3.3125 67.0625 C0.80732904 65.6164339 -1.16124855 64.85375983 -4 64 C-7.65683499 65.21460711 -10.19135863 66.9297885 -13.3046875 69.1796875 C-15.97260717 70.98149991 -17.33443562 71.60573265 -20.5 71.6875 C-24 71 -24 71 -26.4375 69.375 C-29.04154951 65.41684475 -29.2156384 62.09646644 -28.30859375 57.484375 C-28.02113281 56.25203125 -27.73367187 55.0196875 -27.4375 53.75 C-26.62419344 49.41876901 -26.51394213 46.74459929 -29.01953125 42.90625 C-31.5715294 40.42361946 -34.21711929 38.21566936 -37 36 C-39.45842333 32.31236501 -39.68342236 29.2822034 -39 25 C-36.73327987 21.5545854 -34.12144814 20.35133437 -30.1484375 19.37109375 C-25.79737199 18.61954607 -21.40169817 18.30246751 -17 18 C-16.81824219 17.41992188 -16.63648438 16.83984375 -16.44921875 16.2421875 C-12.81327577 4.94279547 -12.81327577 4.94279547 -9.25 1.125 C-5.95966302 -0.52016849 -3.62891507 -0.44565624 0 0 Z M-4 29 C-4.37125 29.61875 -4.7425 30.2375 -5.125 30.875 C-7.48622906 33.5510596 -9.60131652 34.0936844 -13 35 C-12.01 35.495 -12.01 35.495 -11 36 C-10.3671875 38.50390625 -10.3671875 38.50390625 -9.875 41.5625 C-9.70742187 42.57441406 -9.53984375 43.58632812 -9.3671875 44.62890625 C-9.24601562 45.41136719 -9.12484375 46.19382812 -9 47 C-7.741875 46.814375 -6.48375 46.62875 -5.1875 46.4375 C-2.17255732 45.99267239 -0.99531539 46.00156154 2 47 C2.103125 45.7625 2.20625 44.525 2.3125 43.25 C2.73801682 39.7207134 3.48112592 37.62839034 6 35 C4.906875 34.566875 3.81375 34.13375 2.6875 33.6875 C-0.09408793 32.50504359 -2.06361939 31.39199957 -4 29 Z " fill="#71a2c0" transform="translate(183,66)"/>
<path d="M0 0 C6.45054982 1.35253464 12.71105679 3.03060233 19 5 C17.41060574 8.93214301 14.83657498 11.33020346 11.8125 14.25 C8.03651883 17.94368258 4.42681318 21.69883454 1 25.71875 C-1.16895337 28.19271243 -3.40840076 30.58888206 -5.66064453 32.98681641 C-10.86772641 38.53203975 -15.86606861 44.14992755 -20.625 50.08984375 C-23.51050002 53.62553045 -26.49945303 57.06195392 -29.5 60.5 C-40.41830305 73.04970157 -50.45955055 86.13143228 -60.328125 99.51171875 C-60.86977295 100.24237549 -61.4114209 100.97303223 -61.96948242 101.72583008 C-63.01034888 103.13008256 -64.04715604 104.53735546 -65.0793457 105.94799805 C-65.54945068 106.58133057 -66.01955566 107.21466309 -66.50390625 107.8671875 C-66.91455322 108.42519043 -67.3252002 108.98319336 -67.74829102 109.55810547 C-70.09088306 112.25663261 -71.86820389 112.98291532 -75.375 113.4375 C-79 113 -79 113 -81.9375 111 C-84.4847598 107.29489483 -84.71750853 104.33381318 -84 100 C-82.1640625 96.83203125 -82.1640625 96.83203125 -79.625 93.8125 C-78.71040476 92.69705118 -77.7963591 91.58115156 -76.8828125 90.46484375 C-76.40875977 89.89878418 -75.93470703 89.33272461 -75.44628906 88.74951172 C-73.05143217 85.85255958 -70.78126088 82.86160071 -68.5 79.875 C-68.07928223 79.33077393 -67.65856445 78.78654785 -67.22509766 78.22583008 C-65.39810973 75.85971258 -63.65933814 73.48900721 -62 71 C-61.34 71 -60.68 71 -60 71 C-59.74992187 70.43925781 -59.49984375 69.87851562 -59.2421875 69.30078125 C-57.79984274 66.62926847 -56.07683374 64.51468638 -54.125 62.1875 C-50.36727354 57.66252071 -46.66516523 53.10025749 -43 48.5 C-39.36462304 43.9498744 -35.7282209 39.40073195 -32.0625 34.875 C-31.39347656 34.04742187 -30.72445312 33.21984375 -30.03515625 32.3671875 C-27.80672501 29.77519262 -25.44334691 27.38964698 -23 25 C-18.42357179 20.50433229 -13.99510355 15.96096902 -9.80859375 11.09765625 C-7.75019642 8.71027101 -5.65877914 6.35416937 -3.5625 4 C-2.88316406 3.236875 -2.20382813 2.47375 -1.50390625 1.6875 C-1.00761719 1.130625 -0.51132813 0.57375 0 0 Z " fill="#71a2c0" transform="translate(130,387)"/>
<path d="M0 0 C2.71615883 1.98322708 4.71122532 3.52793098 5.38256836 6.95019531 C5.45830533 9.27628999 5.38183689 11.55146198 5.25 13.875 C5.20034874 15.57150013 5.15483023 17.26812585 5.11328125 18.96484375 C5.07581787 20.23110596 5.07581787 20.23110596 5.03759766 21.52294922 C4.9821407 25.17662623 5.17565256 28.79452461 5.4375 32.4375 C5.51871094 33.61183594 5.59992188 34.78617188 5.68359375 35.99609375 C5.94284605 38.45739023 6.38354579 40.61869704 7 43 C7.45995101 47.28282255 7.714263 50.77980071 5.5 54.5625 C2.08273462 56.52742759 -1.15564028 57.02115805 -5 56 C-9.00305062 53.00512509 -10.17083252 49.45652335 -11.25 44.75 C-11.41838379 44.02562744 -11.58676758 43.30125488 -11.76025391 42.55493164 C-13.13325091 35.86591839 -13.36454592 29.25147112 -13.375 22.4375 C-13.37661133 21.42719727 -13.37822266 20.41689453 -13.37988281 19.37597656 C-13.17378127 5.57633336 -13.17378127 5.57633336 -9.3125 1 C-5.94023584 -0.45827639 -3.63584463 -0.51029398 0 0 Z " fill="#71a2c0" transform="translate(370,214)"/>
<path d="M0 0 C2.4375 1 2.4375 1 4 3 C4.81901085 6.75379975 5.04366007 10.00809789 4.875 13.83984375 C4.49950972 22.95721706 7.01236312 28.51854468 12 36 C12.4713034 39.61332604 12.20289136 41.57577261 10.625 44.875 C7.18163515 47.66248583 4.82171088 47.84965996 0.46484375 47.59375 C-3.09535175 46.73614348 -4.58187791 45.26705916 -6.6875 42.3359375 C-12.75087635 31.54457126 -16.17909676 19.8284778 -13.43359375 7.4453125 C-10.95034928 0.34661366 -7.12499044 -0.87625891 0 0 Z " fill="#71a2c0" transform="translate(317,453)"/>
<path d="M0 0 C0.495 2.475 0.495 2.475 1 5 C0.01 5.33 -0.98 5.66 -2 6 C-2.69378377 7.31942651 -3.3573102 8.65494534 -4 10 C-5.5847168 11.7199707 -5.5847168 11.7199707 -7.44921875 13.42578125 C-8.13306641 14.05806641 -8.81691406 14.69035156 -9.52148438 15.34179688 C-10.23626953 15.99212891 -10.95105469 16.64246094 -11.6875 17.3125 C-13.08832585 18.5990787 -14.48807285 19.88683306 -15.88671875 21.17578125 C-16.57427246 21.80436035 -17.26182617 22.43293945 -17.97021484 23.08056641 C-20.55507139 25.52489431 -22.97593101 28.10868248 -25.37036133 30.73901367 C-27 32 -27 32 -31 32 C-33.43483428 27.13033145 -31.53505768 19.66812099 -29.9375 14.6875 C-24.45451698 7.08207194 -17.25213025 2.74478053 -8.3125 0.25 C-5.52758822 -0.05107154 -2.79870384 -0.06508614 0 0 Z " fill="#71a2c0" transform="translate(335,109)"/>
<path d="M0 0 C0.66 0.33 1.32 0.66 2 1 C1.34773438 1.64066406 0.69546875 2.28132813 0.0234375 2.94140625 C-4.883259 7.79744364 -9.60304566 12.67737106 -14 18 C-14 13.95983547 -12.53130788 13.0433941 -9.8125 10.125 C-8.99523437 9.24328125 -8.17796875 8.3615625 -7.3359375 7.453125 C-4.92833066 4.92473521 -2.50872566 2.42779902 0 0 Z " fill="#71a2c0" transform="translate(277,95)"/>
<path d="M0 0 C0 3 0 3 -1.19335938 4.53393555 C-1.73798828 5.062854 -2.28261719 5.59177246 -2.84375 6.13671875 C-3.72353516 7.00200195 -3.72353516 7.00200195 -4.62109375 7.88476562 C-5.24113281 8.47966797 -5.86117187 9.07457031 -6.5 9.6875 C-7.12003906 10.29400391 -7.74007812 10.90050781 -8.37890625 11.52539062 C-9.91264707 13.02373743 -11.45548198 14.51276493 -13 16 C-13.66 15.67 -14.32 15.34 -15 15 C-10.28109462 9.59947495 -5.69641143 4.38185495 0 0 Z " fill="#71a2c0" transform="translate(236,150)"/>
<path d="M0 0 C0.99 0.33 1.98 0.66 3 1 C2.360625 1.556875 1.72125 2.11375 1.0625 2.6875 C-1.19680987 5.22066561 -1.63149047 6.68341424 -2 10 C-2.33 10 -2.66 10 -3 10 C-3.36923077 4.58461538 -3.36923077 4.58461538 -1.5 1.625 C-1.005 1.08875 -0.51 0.5525 0 0 Z " fill="#71a2c0" transform="translate(361,215)"/>
</svg>
